<?xml version="1.0" standalone="no"?>
<!DOCTYPE svg PUBLIC "-//W3C//DTD SVG 20010904//EN"
 "http://www.w3.org/TR/2001/REC-SVG-20010904/DTD/svg10.dtd">
<svg version="1.0" xmlns="http://www.w3.org/2000/svg"
 width="300.000000pt" height="300.000000pt" viewBox="0 0 300.000000 300.000000"
 preserveAspectRatio="xMidYMid meet">
<metadata>
Created by potrace 1.11, written by Peter Selinger 2001-2013
</metadata>
<g transform="translate(0.000000,300.000000) scale(0.100000,-0.100000)"
fill="#000000" stroke="none">
<path d="M0 1500 l0 -1500 1500 0 1500 0 0 1500 0 1500 -1500 0 -1500 0 0
-1500z m1282 462 c51 -25 74 -43 97 -78 76 -115 58 -273 -40 -343 -37 -27 -38
-30 -19 -36 34 -11 89 -64 113 -109 34 -64 31 -182 -6 -258 -33 -68 -99 -129
-165 -154 -40 -15 -92 -18 -354 -22 l-308 -4 0 522 0 521 308 -3 307 -3 67
-33z m672 -313 c109 -192 203 -352 207 -355 5 -3 9 155 9 350 l0 356 100 0
100 0 0 -520 0 -521 -111 3 -111 3 -207 360 -206 360 -3 -363 -2 -362 -100 0
-100 0 0 520 0 520 113 0 112 -1 199 -350z"/>
<path d="M810 1704 l0 -116 163 4 c174 4 205 12 228 55 18 33 16 96 -4 126
-23 35 -85 47 -246 47 l-141 0 0 -116z"/>
<path d="M810 1274 l0 -136 168 4 c145 3 171 6 199 23 65 39 80 149 29 200
-36 36 -88 45 -248 45 l-148 0 0 -136z"/>
</g>
</svg>
